<?xml version="1.0" standalone="no"?>
<!DOCTYPE svg PUBLIC "-//W3C//DTD SVG 20010904//EN"
 "http://www.w3.org/TR/2001/REC-SVG-20010904/DTD/svg10.dtd">
<svg version="1.0" xmlns="http://www.w3.org/2000/svg"
 width="348.000000pt" height="342.000000pt" viewBox="0 0 348.000000 342.000000"
 preserveAspectRatio="xMidYMid meet">

<g transform="translate(0.000000,342.000000) scale(0.100000,-0.100000)"
fill="#000000" stroke="none">
<path d="M1545 3334 c-484 -52 -922 -313 -1187 -709 -369 -550 -369 -1250 0
-1800 239 -357 602 -596 1042 -686 163 -33 433 -34 598 -1 435 87 805 330
1044 687 369 551 369 1249 0 1800 -238 356 -611 601 -1039 685 -105 21 -362
34 -458 24z m-681 -1141 c8 -79 189 -763 200 -760 5 2 48 129 96 282 l87 280
-23 75 c-12 41 -29 99 -38 128 l-15 52 113 0 113 0 12 -77 c15 -100 194 -734
206 -734 13 -1 201 602 224 716 l18 90 102 3 c81 2 102 0 99 -10 -3 -7 -26
-76 -51 -153 -25 -77 -100 -308 -167 -513 l-121 -373 -116 3 -116 3 -76 247
c-42 136 -80 246 -85 245 -5 -2 -44 -113 -86 -248 l-76 -244 -116 -3 -116 -3
-16 53 c-8 29 -72 258 -141 508 -69 250 -128 463 -131 473 -5 15 4 17 104 17
l109 0 7 -57z m1543 -15 c-6 -69 -12 -617 -9 -740 l2 -58 174 0 c100 0 177 -4
181 -9 3 -6 3 -46 -1 -90 l-7 -81 -281 0 -281 0 0 525 0 525 114 0 113 0 -5
-72z"/>
</g>
</svg>
