<?xml version="1.0" encoding="utf-8"?>
<svg version="1.0" width="574.000000pt" height="63.000000pt" viewBox="0 0 574.000000 63.000000" preserveAspectRatio="xMidYMid meet" xmlns="http://www.w3.org/2000/svg">
  <g transform="matrix(0.1, 0, 0, -0.1, 0.636364, 63)" fill="#000000" stroke="none">
    <path d="M1813 551 c-51 -24 -78 -62 -78 -112 0 -47 28 -79 99 -112 28 -14 59 -34 70 -46 18 -19 18 -22 2 -46 -21 -32 -70 -34 -127 -4 -23 11 -42 19 -44 17 -2 -2 -5 -21 -7 -43 l-3 -40 50 -13 c124 -32 225 23 225 122 0 46 -29 78 -105 116 -48 24 -67 39 -72 58 -12 48 44 66 114 37 20 -8 38 -14 40 -11 2 2 6 19 10 38 5 33 3 36 -27 47 -48 16 -99 13 -147 -8z"/>
    <path d="M2745 360 l0 -210 113 0 112 0 0 35 0 35 -76 0 -76 0 7 175 7 175 -43 0 -44 0 0 -210z"/>
    <path d="M3150 404 c0 -149 2 -170 20 -199 31 -50 108 -72 188 -54 95 21 109 53 118 258 l7 161 -46 0 -46 0 6 -133 c4 -90 2 -144 -6 -168 -20 -60 -88 -77 -138 -35 l-28 24 3 156 3 156 -41 0 -40 0 0 -166z"/>
    <path d="M3722 488 c93 -150 91 -122 20 -230 -34 -52 -62 -97 -62 -101 0 -4 17 -7 38 -7 35 1 39 5 77 66 22 36 45 70 51 75 9 7 25 -12 55 -65 l44 -75 48 -1 c26 0 47 2 47 4 0 3 -29 52 -65 110 l-66 105 61 94 c33 52 60 97 60 100 0 4 -17 7 -38 7 -37 0 -41 -3 -79 -67 -22 -38 -46 -68 -53 -68 -7 0 -31 30 -53 68 l-40 67 -49 0 -48 0 52 -82z"/>
    <path d="M4240 409 c0 -180 8 -212 61 -243 39 -23 141 -26 183 -5 67 33 84 95 85 307 l1 103 -42 -3 -43 -3 4 -132 c2 -81 -1 -145 -8 -166 -20 -58 -89 -75 -138 -33 l-28 24 3 156 3 156 -41 0 -40 0 0 -161z"/>
    <path d="M4800 360 l0 -210 40 0 40 0 0 70 0 70 33 0 c29 0 35 -6 72 -73 40 -70 42 -72 75 -69 19 2 39 7 43 12 5 4 -13 40 -39 79 l-47 71 25 28 c36 38 48 65 48 107 0 90 -56 125 -200 125 l-90 0 0 -210z m163 139 c30 -16 37 -28 37 -67 0 -45 -38 -82 -85 -82 l-35 0 0 73 c0 41 3 77 7 80 10 11 52 8 76 -4z"/>
    <path d="M5267 533 c8 -21 37 -82 64 -135 46 -91 49 -103 49 -173 l0 -75 40 0 40 0 0 72 c0 69 2 75 70 204 39 73 70 135 70 138 0 3 -17 6 -38 6 -37 0 -38 0 -85 -95 -26 -52 -50 -95 -54 -95 -5 0 -26 43 -48 95 l-40 95 -42 0 -42 0 16 -37z"/>
    <path d="M210 358 l57 -203 45 -3 46 -3 20 53 c11 29 25 72 32 96 7 23 16 42 19 42 4 0 20 -43 35 -95 l29 -95 48 0 47 0 66 198 c36 108 66 200 66 205 0 4 -17 7 -39 7 -35 0 -39 -3 -45 -32 -10 -52 -87 -290 -92 -285 -8 7 -84 280 -84 299 0 15 -9 18 -45 18 -44 0 -45 -1 -39 -27 4 -16 10 -37 14 -48 8 -24 -64 -257 -73 -235 -13 31 -77 275 -77 292 0 15 -9 18 -44 18 l-43 0 57 -202z"/>
    <path d="M 1360 355 L 1360 150 L 1403 150 L 1445 150 L 1448 355 L 1450 560 L 1405 560 L 1360 560 L 1360 355 Z"/>
    <path d="M 845 355 L 845 150 L 888 150 L 930 150 L 930 220 L 930 290 L 959 290 C 985 290 993 282 1031 215 C 1055 174 1079 140 1084 140 C 1090 140 1112 145 1132 150 L 1170 161 L 1118 235 L 1066 310 L 1100 345 C 1128 373 1134 389 1138 434 C 1142 487 1141 491 1107 525 L 1072 560 L 959 560 L 845 560 L 845 355 Z M 1030 480 C 1077 433 1036 350 965 350 L 930 350 L 930 425 L 930 500 L 970 500 C 997 500 1017 493 1030 480 Z"/>
    <path d="M2160 524 l0 -35 55 6 55 7 2 -93 c1 -52 1 -131 -1 -176 l-3 -83 46 0 46 0 0 176 0 175 53 -3 52 -3 3 33 3 32 -155 0 -156 0 0 -36z"/>
  </g>
</svg>