<?xml version="1.0" encoding="utf-8"?>
<svg version="1.0" width="694.000000pt" height="497.000000pt" viewBox="0 0 694.000000 497.000000" preserveAspectRatio="xMidYMid meet" xmlns="http://www.w3.org/2000/svg">
  <g transform="translate(0.000000,497.000000) scale(0.100000,-0.100000)" fill="#000000" stroke="none">
    <path d="M3295 4454 c-484 -52 -922 -313 -1187 -709 -369 -550 -369 -1250 0 -1800 239 -357 602 -596 1042 -686 163 -33 433 -34 598 -1 435 87 805 330 1044 687 369 551 369 1249 0 1800 -238 356 -611 601 -1039 685 -105 21 -362 34 -458 24z m-681 -1141 c8 -79 189 -763 200 -760 5 2 48 129 96 282 l87 280 -23 75 c-12 41 -29 99 -38 128 l-15 52 113 0 113 0 12 -77 c15 -100 194 -734 206 -734 13 -1 201 602 224 716 l18 90 102 3 c81 2 102 0 99 -10 -3 -7 -26 -76 -51 -153 -25 -77 -100 -308 -167 -513 l-121 -373 -116 3 -116 3 -76 247 c-42 136 -80 246 -85 245 -5 -2 -44 -113 -86 -248 l-76 -244 -116 -3 -116 -3 -16 53 c-8 29 -72 258 -141 508 -69 250 -128 463 -131 473 -5 15 4 17 104 17 l109 0 7 -57z m1543 -15 c-6 -69 -12 -617 -9 -740 l2 -58 174 0 c100 0 177 -4 181 -9 3 -6 3 -46 -1 -90 l-7 -81 -281 0 -281 0 0 525 0 525 114 0 113 0 -5 -72z"/>
    <path d="M2413 891 c-51 -24 -78 -62 -78 -112 0 -47 28 -79 99 -112 28 -14 59 -34 70 -46 18 -19 18 -22 2 -46 -21 -32 -70 -34 -127 -4 -23 11 -42 19 -44 17 -2 -2 -5 -21 -7 -43 l-3 -40 50 -13 c124 -32 225 23 225 122 0 46 -29 78 -105 116 -48 24 -67 39 -72 58 -12 48 44 66 114 37 20 -8 38 -14 40 -11 2 2 6 19 10 38 5 33 3 36 -27 47 -48 16 -99 13 -147 -8z"/>
    <path d="M3345 700 l0 -210 113 0 112 0 0 35 0 35 -76 0 -76 0 7 175 7 175 -43 0 -44 0 0 -210z"/>
    <path d="M3750 744 c0 -149 2 -170 20 -199 31 -50 108 -72 188 -54 95 21 109 53 118 258 l7 161 -46 0 -46 0 6 -133 c4 -90 2 -144 -6 -168 -20 -60 -88 -77 -138 -35 l-28 24 3 156 3 156 -41 0 -40 0 0 -166z"/>
    <path d="M4322 828 c93 -150 91 -122 20 -230 -34 -52 -62 -97 -62 -101 0 -4 17 -7 38 -7 35 1 39 5 77 66 22 36 45 70 51 75 9 7 25 -12 55 -65 l44 -75 48 -1 c26 0 47 2 47 4 0 3 -29 52 -65 110 l-66 105 61 94 c33 52 60 97 60 100 0 4 -17 7 -38 7 -37 0 -41 -3 -79 -67 -22 -38 -46 -68 -53 -68 -7 0 -31 30 -53 68 l-40 67 -49 0 -48 0 52 -82z"/>
    <path d="M4840 749 c0 -180 8 -212 61 -243 39 -23 141 -26 183 -5 67 33 84 95 85 307 l1 103 -42 -3 -43 -3 4 -132 c2 -81 -1 -145 -8 -166 -20 -58 -89 -75 -138 -33 l-28 24 3 156 3 156 -41 0 -40 0 0 -161z"/>
    <path d="M5400 700 l0 -210 40 0 40 0 0 70 0 70 33 0 c29 0 35 -6 72 -73 40 -70 42 -72 75 -69 19 2 39 7 43 12 5 4 -13 40 -39 79 l-47 71 25 28 c36 38 48 65 48 107 0 90 -56 125 -200 125 l-90 0 0 -210z m163 139 c30 -16 37 -28 37 -67 0 -45 -38 -82 -85 -82 l-35 0 0 73 c0 41 3 77 7 80 10 11 52 8 76 -4z"/>
    <path d="M5867 873 c8 -21 37 -82 64 -135 46 -91 49 -103 49 -173 l0 -75 40 0 40 0 0 72 c0 69 2 75 70 204 39 73 70 135 70 138 0 3 -17 6 -38 6 -37 0 -38 0 -85 -95 -26 -52 -50 -95 -54 -95 -5 0 -26 43 -48 95 l-40 95 -42 0 -42 0 16 -37z"/>
    <path d="M810 698 l57 -203 45 -3 46 -3 20 53 c11 29 25 72 32 96 7 23 16 42 19 42 4 0 20 -43 35 -95 l29 -95 48 0 47 0 66 198 c36 108 66 200 66 205 0 4 -17 7 -39 7 -35 0 -39 -3 -45 -32 -10 -52 -87 -290 -92 -285 -8 7 -84 280 -84 299 0 15 -9 18 -45 18 -44 0 -45 -1 -39 -27 4 -16 10 -37 14 -48 8 -24 -64 -257 -73 -235 -13 31 -77 275 -77 292 0 15 -9 18 -44 18 l-43 0 57 -202z"/>
    <path d="M 1960 695 L 1960 490 L 2003 490 L 2045 490 L 2048 695 L 2050 900 L 2005 900 L 1960 900 L 1960 695 Z"/>
    <path d="M 1465 695 L 1465 490 L 1508 490 L 1550 490 L 1550 560 L 1550 630 L 1579 630 C 1605 630 1613 622 1651 555 C 1675 514 1699 480 1704 480 C 1710 480 1732 485 1752 490 L 1790 501 L 1738 575 L 1686 650 L 1720 685 C 1748 713 1754 729 1758 774 C 1762 827 1761 831 1727 865 L 1692 900 L 1579 900 L 1465 900 L 1465 695 Z M 1650 820 C 1697 773 1656 690 1585 690 L 1550 690 L 1550 765 L 1550 840 L 1590 840 C 1617 840 1637 833 1650 820 Z"/>
    <path d="M2760 864 l0 -35 55 6 55 7 2 -93 c1 -52 1 -131 -1 -176 l-3 -83 46 0 46 0 0 176 0 175 53 -3 52 -3 3 33 3 32 -155 0 -156 0 0 -36z"/>
  </g>
</svg>